<svg aria-hidden="true" style="position: absolute; width: 0; height: 0; overflow: hidden;" version="1.1" xmlns="http://www.w3.org/2000/svg" xmlns:xlink="http://www.w3.org/1999/xlink">
<defs>
<symbol id="icon-telegram" viewBox="0 0 30 32">
<path fill="#3fa3ff" style="fill: var(--color3, #3fa3ff)" d="M11.958 20.042l-0.504 7.091c0.721 0 1.034-0.31 1.408-0.682l3.382-3.232 7.007 5.131c1.285 0.716 2.19 0.339 2.537-1.182l4.601-21.553c0.408-1.9-0.687-2.643-1.939-2.177l-27.035 10.35c-1.845 0.716-1.817 1.745-0.314 2.211l6.912 2.15 16.055-10.046c0.756-0.5 1.442-0.223 0.877 0.277l-12.987 11.661z"></path>
</symbol>
<symbol id="icon-logo" viewBox="0 0 63 32">
<path fill="#fff" style="fill: var(--color2, #fff)" d="M13.405 24.766c0.067 0.044 0.101 0.123 0.101 0.237 0 0.107-0.030 0.182-0.090 0.226-0.058 0.041-0.154 0.062-0.289 0.062h-0.799v1.399c0 0.165-0.036 0.29-0.109 0.375-0.073 0.088-0.177 0.131-0.315 0.131-0.13 0-0.232-0.040-0.304-0.12-0.072-0.078-0.109-0.211-0.109-0.401v-1.538c0-0.078 0.011-0.144 0.033-0.2 0.019-0.058 0.048-0.105 0.087-0.139s0.082-0.060 0.13-0.076c0.048-0.015 0.102-0.022 0.163-0.022h1.186c0.14-0 0.244 0.021 0.314 0.065z"></path>
<path fill="#fff" style="fill: var(--color2, #fff)" d="M15.112 26.649c0 0.197-0.036 0.337-0.109 0.421s-0.183 0.126-0.333 0.126c-0.149 0-0.259-0.038-0.329-0.115s-0.105-0.212-0.105-0.406v-1.538c0-0.148 0.040-0.258 0.119-0.33s0.185-0.107 0.315-0.107h0.644c0.157 0 0.301 0.021 0.434 0.064s0.248 0.102 0.345 0.179 0.174 0.172 0.228 0.288c0.054 0.115 0.081 0.244 0.081 0.384 0 0.172-0.049 0.322-0.148 0.45s-0.229 0.223-0.391 0.286c-0.162 0.063-0.344 0.095-0.546 0.095h-0.206v0.204h0zM15.569 25.564c0-0.090-0.009-0.161-0.025-0.213s-0.046-0.092-0.089-0.118c-0.042-0.027-0.088-0.044-0.137-0.053s-0.118-0.013-0.204-0.013v0.802c0.067 0 0.127-0.006 0.179-0.018s0.099-0.033 0.143-0.062c0.043-0.029 0.077-0.071 0.099-0.126s0.035-0.12 0.035-0.198z"></path>
<path fill="#fff" style="fill: var(--color2, #fff)" d="M19.262 24.799c0.070 0.068 0.105 0.18 0.105 0.335v0.157c0 0.068-0.009 0.233-0.025 0.495-0.019 0.274-0.034 0.444-0.043 0.506-0.024 0.148-0.060 0.277-0.109 0.386-0.048 0.107-0.116 0.202-0.202 0.284-0.087 0.085-0.198 0.148-0.333 0.189s-0.296 0.062-0.481 0.062c-0.149 0-0.288-0.019-0.416-0.058-0.128-0.036-0.229-0.081-0.304-0.135-0.075-0.056-0.133-0.11-0.174-0.164-0.043-0.053-0.065-0.1-0.065-0.139s0.014-0.075 0.043-0.109c0.031-0.032 0.073-0.047 0.123-0.047 0.036 0 0.078 0.010 0.126 0.029 0.050 0.019 0.098 0.041 0.141 0.065 0.046 0.024 0.1 0.046 0.163 0.065 0.060 0.019 0.121 0.029 0.181 0.029 0.152 0 0.259-0.033 0.322-0.098 0.063-0.063 0.094-0.154 0.094-0.273l0.003-0.007v-0.095c-0.053 0.005-0.106 0.007-0.159 0.007-0.384 0-0.666-0.082-0.846-0.248-0.178-0.165-0.268-0.414-0.268-0.747v-0.157c0-0.129 0.038-0.233 0.116-0.313 0.075-0.082 0.17-0.124 0.286-0.124 0.142 0 0.25 0.027 0.322 0.080 0.075 0.053 0.112 0.162 0.112 0.324v0.259c0.002 0.078 0.014 0.14 0.036 0.186 0.024 0.046 0.055 0.078 0.094 0.095 0.038 0.019 0.088 0.029 0.148 0.029s0.11-0.007 0.148-0.022c0.038-0.015 0.066-0.038 0.083-0.069 0.019-0.032 0.031-0.063 0.036-0.095 0.007-0.032 0.011-0.073 0.011-0.124v-0.262c0-0.082 0.010-0.152 0.029-0.208 0.022-0.056 0.053-0.097 0.094-0.124 0.043-0.027 0.087-0.045 0.13-0.055 0.046-0.010 0.1-0.015 0.163-0.015 0.139 0.001 0.244 0.035 0.314 0.103z"></path>
<path fill="#fff" style="fill: var(--color2, #fff)" d="M21.244 25.553c0-0.119-0.11-0.179-0.329-0.179-0.046 0-0.108 0.004-0.186 0.013s-0.136 0.013-0.172 0.013c-0.174 0-0.261-0.105-0.261-0.313 0-0.216 0.251-0.324 0.752-0.324 0.325 0 0.569 0.053 0.731 0.16s0.242 0.247 0.242 0.419c0 0.241-0.104 0.432-0.311 0.576 0.14 0.076 0.238 0.154 0.295 0.235s0.085 0.199 0.085 0.352c0 0.211-0.082 0.383-0.248 0.515s-0.387 0.199-0.664 0.199c-0.347 0-0.596-0.036-0.747-0.108s-0.226-0.18-0.226-0.326c0-0.122 0.024-0.205 0.073-0.25s0.116-0.068 0.202-0.068c0.043 0 0.111 0.005 0.202 0.015s0.162 0.015 0.21 0.015c0.263 0 0.394-0.048 0.394-0.146 0-0.065-0.025-0.111-0.076-0.137s-0.146-0.038-0.286-0.038c-0.14 0-0.239-0.018-0.297-0.055s-0.087-0.105-0.087-0.204c0-0.151 0.099-0.226 0.297-0.226 0.128 0 0.222-0.006 0.284-0.018s0.097-0.026 0.107-0.042c0.010-0.015 0.015-0.041 0.015-0.078z"></path>
<path fill="#fff" style="fill: var(--color2, #fff)" d="M25.197 24.784c0.070 0.053 0.105 0.162 0.105 0.324v1.545c0 0.197-0.035 0.338-0.105 0.423-0.070 0.083-0.176 0.124-0.318 0.124-0.14 0-0.242-0.039-0.308-0.117-0.065-0.075-0.098-0.21-0.098-0.404l-0.004-0.412-0.004-0.372-0.731 1.090c-0.022 0.032-0.042 0.058-0.062 0.080l-0.007 0.011c-0.067 0.083-0.175 0.124-0.322 0.124-0.14 0-0.242-0.039-0.308-0.117-0.065-0.075-0.098-0.21-0.098-0.404l-0.011-1.538c0-0.151 0.038-0.261 0.116-0.332 0.075-0.070 0.175-0.106 0.3-0.106 0.145 0 0.251 0.027 0.318 0.080 0.070 0.053 0.105 0.162 0.105 0.324v0.907l0.448-0.671 0.297-0.437 0.011-0.018c0.036-0.068 0.084-0.115 0.145-0.142 0.058-0.029 0.128-0.044 0.21-0.044 0.141-0.001 0.247 0.026 0.319 0.079z"></path>
<path fill="#fff" style="fill: var(--color2, #fff)" d="M28.569 26.649c0 0.197-0.035 0.337-0.105 0.421s-0.176 0.126-0.318 0.126c-0.14 0-0.242-0.038-0.308-0.115s-0.098-0.212-0.098-0.406l-0.004-0.412h-0.738v0.386c0 0.199-0.034 0.34-0.101 0.423s-0.175 0.124-0.322 0.124c-0.14 0-0.242-0.038-0.308-0.115s-0.098-0.212-0.098-0.406l-0.011-1.538c0-0.151 0.038-0.261 0.114-0.332s0.177-0.106 0.302-0.106c0.145 0 0.251 0.027 0.32 0.080s0.103 0.162 0.103 0.324v0.612h0.735v-0.579c0-0.102 0.019-0.186 0.056-0.253s0.086-0.114 0.145-0.142c0.059-0.028 0.13-0.042 0.212-0.042 0.14 0 0.245 0.027 0.317 0.080s0.107 0.162 0.107 0.324v1.544h0z"></path>
<path fill="#fff" style="fill: var(--color2, #fff)" d="M30.895 25.385c0-0.051-0.021-0.095-0.063-0.131s-0.092-0.055-0.15-0.055c-0.116 0-0.211 0.066-0.286 0.199s-0.112 0.282-0.112 0.45c0 0.129 0.024 0.245 0.072 0.348s0.118 0.185 0.21 0.246c0.092 0.061 0.198 0.091 0.318 0.091 0.089 0 0.175-0.018 0.257-0.053s0.148-0.074 0.199-0.117 0.103-0.081 0.157-0.117c0.054-0.035 0.102-0.053 0.143-0.053 0.053 0 0.099 0.021 0.137 0.064s0.058 0.087 0.058 0.133c0 0.051-0.015 0.11-0.045 0.179s-0.078 0.14-0.143 0.217c-0.065 0.076-0.141 0.147-0.228 0.211s-0.195 0.118-0.324 0.16c-0.129 0.043-0.265 0.064-0.407 0.064-0.188 0-0.362-0.028-0.523-0.086s-0.3-0.138-0.418-0.244c-0.118-0.106-0.211-0.239-0.278-0.399s-0.101-0.34-0.101-0.539c0-0.394 0.117-0.705 0.351-0.933s0.54-0.342 0.919-0.342c0.193 0 0.371 0.033 0.535 0.098s0.294 0.157 0.391 0.273c0.097 0.117 0.145 0.244 0.145 0.383 0 0.16-0.053 0.305-0.159 0.436s-0.244 0.195-0.412 0.195c-0.097 0-0.183-0.027-0.261-0.080s-0.116-0.13-0.116-0.23c0-0.046 0.022-0.11 0.067-0.193 0.045-0.082 0.067-0.14 0.067-0.174z"></path>
<path fill="#fff" style="fill: var(--color2, #fff)" d="M34.338 25.997c0.123 0.015 0.235 0.077 0.336 0.188s0.152 0.252 0.152 0.424c0 0.168-0.012 0.292-0.036 0.374s-0.065 0.137-0.123 0.168c-0.058 0.030-0.146 0.046-0.264 0.046-0.094 0-0.172-0.013-0.233-0.040s-0.106-0.066-0.136-0.118c-0.029-0.052-0.043-0.12-0.043-0.202 0-0.107-0.004-0.196-0.013-0.268s-0.019-0.129-0.033-0.171c-0.013-0.043-0.033-0.075-0.060-0.097s-0.053-0.036-0.078-0.042c-0.025-0.006-0.060-0.009-0.103-0.009h-0.192v0.404c0 0.194-0.038 0.333-0.112 0.417s-0.185 0.126-0.329 0.126c-0.14 0-0.243-0.040-0.309-0.118s-0.099-0.212-0.099-0.399v-1.52c0-0.153 0.028-0.268 0.085-0.344s0.149-0.115 0.277-0.115c0.075 0 0.137 0.005 0.186 0.015s0.098 0.027 0.145 0.053c0.047 0.026 0.082 0.065 0.105 0.12s0.034 0.125 0.034 0.209c0 0.076-0.001 0.16-0.002 0.253s-0.002 0.16-0.002 0.199c0 0.032 0.008 0.058 0.023 0.080s0.040 0.040 0.072 0.053c0.033 0.014 0.073 0.020 0.121 0.020 0.104 0 0.173-0.041 0.208-0.124s0.053-0.251 0.053-0.507c0-0.126 0.034-0.22 0.101-0.28s0.176-0.091 0.325-0.091c0.162 0 0.27 0.032 0.325 0.095s0.083 0.176 0.083 0.339c0 0.267-0.046 0.474-0.139 0.621s-0.202 0.228-0.328 0.242z"></path>
<path fill="#fff" style="fill: var(--color2, #fff)" d="M37.536 27.074c-0.19 0.096-0.404 0.144-0.642 0.144s-0.451-0.048-0.64-0.144c-0.189-0.096-0.341-0.24-0.454-0.432s-0.17-0.418-0.17-0.678c0-0.394 0.118-0.706 0.353-0.938s0.54-0.348 0.913-0.348c0.374 0 0.679 0.116 0.915 0.348s0.354 0.545 0.354 0.938c0 0.26-0.057 0.486-0.172 0.678s-0.267 0.336-0.457 0.432zM36.895 26.686c0.082 0 0.153-0.036 0.212-0.109s0.101-0.163 0.126-0.27c0.026-0.107 0.038-0.221 0.038-0.342 0-0.124-0.013-0.241-0.040-0.352s-0.069-0.205-0.129-0.282c-0.059-0.078-0.129-0.117-0.208-0.117-0.077 0-0.145 0.039-0.202 0.117s-0.101 0.172-0.13 0.284-0.043 0.229-0.043 0.35c0 0.122 0.014 0.236 0.042 0.342s0.071 0.197 0.13 0.27c0.059 0.073 0.127 0.11 0.204 0.11z"></path>
<path fill="#fff" style="fill: var(--color2, #fff)" d="M40.466 25.717c0.128 0 0.218 0.021 0.269 0.062s0.078 0.112 0.078 0.211c0 0.083-0.031 0.142-0.092 0.177s-0.157 0.053-0.288 0.053h-0.586v0.386l0.785 0.004c0.135 0 0.232 0.020 0.291 0.060s0.089 0.111 0.089 0.213c0 0.117-0.034 0.198-0.103 0.244s-0.173 0.069-0.313 0.069h-1.172c-0.142 0-0.246-0.038-0.313-0.115s-0.099-0.212-0.099-0.406v-1.538c0-0.292 0.138-0.437 0.412-0.437h1.172c0.14 0 0.244 0.022 0.313 0.065s0.103 0.122 0.103 0.237c0 0.107-0.030 0.182-0.089 0.224s-0.156 0.064-0.291 0.064h-0.788v0.426h0.622z"></path>
<path fill="#fff" style="fill: var(--color2, #fff)" d="M45.273 25.83c0.099 0.129 0.148 0.279 0.148 0.452 0 0.141-0.028 0.268-0.083 0.383-0.053 0.117-0.129 0.213-0.228 0.288-0.097 0.078-0.211 0.137-0.344 0.179-0.133 0.044-0.277 0.066-0.434 0.066h-0.648c-0.022 0-0.043-0.001-0.065-0.004h-0.011c-0.094-0.012-0.173-0.047-0.235-0.106-0.080-0.070-0.119-0.18-0.119-0.328v-1.538c0-0.194 0.035-0.33 0.105-0.408 0.065-0.070 0.164-0.108 0.297-0.113h1.215c0.14 0 0.244 0.022 0.311 0.065 0.070 0.044 0.105 0.123 0.105 0.237 0 0.107-0.030 0.182-0.090 0.226-0.058 0.041-0.154 0.062-0.289 0.062h-0.778v0.16h0.206c0.202 0 0.385 0.032 0.546 0.095s0.292 0.158 0.391 0.284zM44.561 26.544c0.017-0.051 0.025-0.122 0.025-0.211 0-0.078-0.011-0.144-0.033-0.2-0.024-0.053-0.058-0.095-0.101-0.124s-0.090-0.050-0.141-0.062c-0.053-0.012-0.113-0.018-0.181-0.018v0.802c0.087 0 0.156-0.005 0.206-0.015 0.048-0.007 0.093-0.024 0.134-0.051 0.043-0.027 0.074-0.067 0.090-0.12z"></path>
<path fill="#fff" style="fill: var(--color2, #fff)" d="M48.558 24.784c0.070 0.053 0.105 0.162 0.105 0.324v1.545c0 0.197-0.035 0.338-0.105 0.423-0.070 0.083-0.176 0.124-0.318 0.124-0.14 0-0.242-0.039-0.308-0.117-0.065-0.075-0.098-0.21-0.098-0.404l-0.004-0.412-0.004-0.372-0.731 1.090c-0.022 0.032-0.042 0.058-0.062 0.080l-0.007 0.011c-0.067 0.083-0.175 0.124-0.322 0.124-0.14 0-0.242-0.039-0.308-0.117-0.065-0.075-0.098-0.21-0.098-0.404l-0.011-1.538c0-0.151 0.038-0.261 0.116-0.332 0.075-0.070 0.175-0.106 0.3-0.106 0.145 0 0.251 0.027 0.318 0.080 0.070 0.053 0.105 0.162 0.105 0.324v0.907l0.449-0.671 0.297-0.437 0.011-0.018c0.036-0.068 0.085-0.115 0.145-0.142 0.058-0.029 0.128-0.044 0.21-0.044 0.14-0.001 0.246 0.026 0.319 0.079z"></path>
<path fill="#fff" style="fill: var(--color2, #fff)" d="M51.024 25.385c0-0.051-0.021-0.095-0.063-0.131s-0.092-0.055-0.15-0.055c-0.116 0-0.211 0.066-0.286 0.199s-0.112 0.282-0.112 0.45c0 0.129 0.024 0.245 0.072 0.348s0.118 0.185 0.21 0.246c0.092 0.061 0.198 0.091 0.318 0.091 0.089 0 0.175-0.018 0.257-0.053s0.148-0.074 0.199-0.117c0.050-0.043 0.103-0.081 0.157-0.117s0.102-0.053 0.143-0.053c0.053 0 0.099 0.021 0.138 0.064s0.058 0.087 0.058 0.133c0 0.051-0.015 0.11-0.045 0.179s-0.078 0.14-0.143 0.217c-0.065 0.076-0.141 0.147-0.228 0.211s-0.195 0.118-0.324 0.16c-0.129 0.043-0.265 0.064-0.407 0.064-0.188 0-0.362-0.028-0.523-0.086s-0.3-0.138-0.418-0.244-0.211-0.239-0.278-0.399c-0.067-0.16-0.101-0.34-0.101-0.539 0-0.394 0.117-0.705 0.351-0.933s0.54-0.342 0.919-0.342c0.193 0 0.371 0.033 0.535 0.098s0.294 0.157 0.391 0.273c0.097 0.117 0.145 0.244 0.145 0.383 0 0.16-0.053 0.305-0.159 0.436s-0.244 0.195-0.412 0.195c-0.097 0-0.183-0.027-0.261-0.080s-0.116-0.13-0.116-0.23c0-0.046 0.022-0.11 0.067-0.193 0.045-0.082 0.067-0.14 0.067-0.174z"></path>
<path fill="#fff" style="fill: var(--color2, #fff)" d="M54.334 26.649c0 0.138-0.017 0.248-0.050 0.33s-0.080 0.138-0.139 0.169c-0.059 0.032-0.137 0.047-0.233 0.047-0.142 0-0.245-0.038-0.309-0.115s-0.097-0.212-0.099-0.406l-0.007-1.345h-0.308c-0.152 0-0.266-0.024-0.342-0.073s-0.114-0.135-0.114-0.259c0-0.075 0.015-0.135 0.045-0.179s0.075-0.075 0.136-0.093c0.060-0.018 0.141-0.027 0.242-0.027h1.548c0.135 0 0.233 0.024 0.293 0.073s0.090 0.133 0.090 0.251c0 0.080-0.018 0.143-0.053 0.188s-0.081 0.076-0.139 0.093-0.133 0.026-0.224 0.026h-0.336v1.32h0z"></path>
<path fill="#fff" style="fill: var(--color2, #fff)" d="M56.725 26.649c0 0.197-0.036 0.337-0.109 0.421s-0.183 0.126-0.333 0.126c-0.15 0-0.259-0.038-0.329-0.115s-0.105-0.212-0.105-0.406v-1.538c0-0.148 0.040-0.258 0.119-0.33s0.185-0.107 0.315-0.107h0.644c0.157 0 0.301 0.021 0.434 0.064s0.248 0.102 0.346 0.179c0.097 0.076 0.173 0.172 0.227 0.288s0.082 0.244 0.082 0.384c0 0.172-0.050 0.322-0.149 0.45s-0.229 0.223-0.391 0.286c-0.161 0.063-0.344 0.095-0.546 0.095h-0.206v0.204h0zM57.181 25.564c0-0.090-0.009-0.161-0.026-0.213s-0.046-0.092-0.089-0.118c-0.042-0.027-0.088-0.044-0.138-0.053s-0.118-0.013-0.205-0.013v0.802c0.067 0 0.127-0.006 0.179-0.018s0.099-0.033 0.143-0.062c0.043-0.029 0.077-0.071 0.099-0.126s0.035-0.12 0.035-0.198z"></path>
<path fill="#fff" style="fill: var(--color2, #fff)" d="M60.664 27.074c-0.19 0.096-0.404 0.144-0.642 0.144s-0.451-0.048-0.641-0.144c-0.189-0.096-0.341-0.24-0.454-0.432s-0.17-0.418-0.17-0.678c0-0.394 0.118-0.706 0.353-0.938s0.54-0.348 0.913-0.348c0.374 0 0.679 0.116 0.915 0.348s0.354 0.545 0.354 0.938c0 0.26-0.057 0.486-0.172 0.678-0.114 0.192-0.266 0.336-0.457 0.432zM60.024 26.686c0.082 0 0.153-0.036 0.211-0.109s0.102-0.163 0.127-0.27c0.025-0.107 0.038-0.221 0.038-0.342 0-0.124-0.014-0.241-0.040-0.352s-0.070-0.205-0.129-0.282c-0.059-0.078-0.129-0.117-0.208-0.117-0.077 0-0.145 0.039-0.202 0.117s-0.102 0.172-0.13 0.284c-0.029 0.112-0.043 0.229-0.043 0.35s0.014 0.236 0.042 0.342c0.027 0.107 0.071 0.197 0.13 0.27s0.127 0.11 0.204 0.11z"></path>
<path fill="#fff" style="fill: var(--color2, #fff)" d="M21.813 22.888h-2.227v-8.137h2.227v8.137z"></path>
<path fill="#fff" style="fill: var(--color2, #fff)" d="M24.673 22.888h-1.032v-8.137h1.447l4.908 5.589v-5.589h1.027v8.137h-1.447l-4.903-5.583v5.583h0z"></path>
<path fill="#fff" style="fill: var(--color2, #fff)" d="M40.542 18.994v0.107c-0.008 0.316-0.040 0.644-0.098 0.983s-0.139 0.678-0.244 1.017c-0.105 0.339-0.23 0.674-0.376 1.006s-0.309 0.649-0.491 0.952c-0.181 0.303-0.377 0.588-0.586 0.853s-0.43 0.5-0.662 0.704l-0.836-0.486c0.131-0.222 0.25-0.464 0.356-0.726s0.203-0.536 0.289-0.822c0.086-0.286 0.16-0.58 0.222-0.881s0.113-0.601 0.154-0.898c0.041-0.297 0.072-0.591 0.092-0.879s0.031-0.562 0.031-0.822c0-0.204-0.001-0.434-0.003-0.692s-0.017-0.521-0.045-0.788c-0.028-0.267-0.074-0.528-0.138-0.783s-0.158-0.481-0.283-0.681c-0.125-0.2-0.286-0.36-0.483-0.48s-0.44-0.181-0.732-0.181c-0.258 0-0.48 0.044-0.665 0.133s-0.342 0.207-0.471 0.356c-0.129 0.149-0.232 0.321-0.309 0.517s-0.136 0.402-0.179 0.619c-0.043 0.217-0.071 0.435-0.084 0.655s-0.020 0.429-0.020 0.625v1.577h2.418v0.932h-2.418v1.978h-2.227v-4.136c0-0.591 0.093-1.142 0.28-1.65s0.452-0.95 0.794-1.325c0.342-0.375 0.753-0.669 1.234-0.881s1.016-0.319 1.607-0.319c0.4 0 0.775 0.057 1.125 0.172s0.668 0.273 0.956 0.475c0.288 0.201 0.545 0.441 0.771 0.718s0.415 0.579 0.566 0.907c0.152 0.328 0.266 0.674 0.345 1.040s0.115 0.734 0.107 1.107z"></path>
<path fill="#fff" style="fill: var(--color2, #fff)" d="M43.487 16.819l-0.628 6.069h-1.374l1.374-8.137h2.036l1.89 6.21 1.913-6.21h2.036l1.145 8.137h-2.266l-0.667-5.911-1.576 5.911h-2.036l-1.846-6.069z"></path>
<path fill="#fff" style="fill: var(--color2, #fff)" d="M61.674 18.808c0 0.655-0.112 1.246-0.337 1.772s-0.535 0.971-0.931 1.336c-0.397 0.365-0.866 0.646-1.408 0.842s-1.13 0.294-1.762 0.294-1.219-0.098-1.761-0.294c-0.542-0.196-1.011-0.476-1.408-0.842s-0.707-0.811-0.931-1.336c-0.224-0.526-0.336-1.116-0.336-1.772 0-0.667 0.111-1.263 0.334-1.789s0.531-0.97 0.926-1.334c0.395-0.364 0.863-0.642 1.405-0.836s1.133-0.291 1.773-0.291c0.639 0 1.23 0.097 1.773 0.291s1.011 0.473 1.405 0.836c0.395 0.364 0.703 0.808 0.926 1.334s0.334 1.122 0.334 1.789zM59.407 18.808c0-0.249-0.011-0.503-0.034-0.763s-0.063-0.512-0.123-0.757-0.141-0.475-0.244-0.689c-0.103-0.215-0.235-0.402-0.395-0.562s-0.354-0.286-0.581-0.379-0.491-0.139-0.794-0.139c-0.306 0-0.574 0.046-0.802 0.139s-0.423 0.217-0.583 0.376c-0.161 0.158-0.292 0.345-0.393 0.559s-0.18 0.444-0.239 0.687c-0.058 0.243-0.098 0.495-0.121 0.757s-0.034 0.519-0.034 0.771c0 0.249 0.011 0.503 0.034 0.763s0.064 0.511 0.123 0.754c0.060 0.243 0.141 0.472 0.244 0.687s0.235 0.402 0.396 0.562c0.161 0.16 0.354 0.287 0.581 0.382s0.491 0.141 0.793 0.141c0.295 0 0.554-0.048 0.774-0.144s0.411-0.226 0.572-0.39c0.161-0.164 0.295-0.354 0.401-0.571s0.191-0.446 0.253-0.689c0.062-0.243 0.105-0.492 0.132-0.749s0.039-0.505 0.039-0.746z"></path>
<path fill="#fff" style="fill: var(--color2, #fff)" d="M18.060 17.681c-0.105-0.356-0.252-0.684-0.44-0.983s-0.415-0.57-0.679-0.811c-0.264-0.241-0.553-0.446-0.87-0.613s-0.653-0.297-1.012-0.387c-0.359-0.090-0.729-0.136-1.111-0.136h-1.030c0.010 0.006 0.020 0.012 0.030 0.018 0.346 0.224 0.652 0.496 0.916 0.814 0.212 0.044 0.406 0.111 0.582 0.201 0.346 0.177 0.631 0.416 0.855 0.718s0.39 0.651 0.496 1.048c0.107 0.397 0.16 0.816 0.16 1.257 0 0.437-0.054 0.853-0.163 1.249s-0.276 0.745-0.502 1.048c-0.226 0.303-0.512 0.544-0.858 0.723s-0.757 0.268-1.232 0.268h-0.589v-1.625c0.031-0.636 0.012-1.167-0.014-1.553-0.064-0.939-0.192-1.262-0.245-1.4-0.156-0.403-0.379-0.715-0.682-0.952-0.287-0.225-0.638-0.334-1.072-0.334-0.074 0-0.144 0.003-0.213 0.010v6.645h3.562c0.382 0 0.753-0.046 1.114-0.139s0.699-0.223 1.015-0.393c0.316-0.17 0.605-0.376 0.867-0.619s0.487-0.515 0.676-0.816c0.189-0.301 0.335-0.63 0.44-0.986s0.157-0.732 0.157-1.127c0-0.395-0.053-0.772-0.157-1.128z"></path>
<path fill="#fff" style="fill: var(--color2, #fff)" d="M9.667 24.924c-0.587-0.454-1.457-0.813-2.609-1.077-0.662-0.15-1.277-0.431-1.847-0.844s-1.032-0.962-1.386-1.646c-0.354-0.683-0.53-1.479-0.53-2.386 0-1.022 0.151-1.803 0.453-2.344s0.75-0.81 1.343-0.81c0.331 0 0.621 0.086 0.872 0.259s0.442 0.414 0.573 0.724c0.131 0.31 0.197 0.661 0.197 1.051v1.068c0 0.85 0.157 1.603 0.472 2.257s0.766 1.166 1.354 1.534c0.42 0.263 0.892 0.431 1.415 0.506v-1.299c-0.245-0.071-0.467-0.186-0.666-0.344-0.359-0.287-0.627-0.663-0.804-1.129s-0.265-0.974-0.265-1.525c0-0.574 0.091-1.097 0.274-1.568s0.45-0.844 0.804-1.12c0.353-0.276 0.781-0.414 1.283-0.414 0.524 0 0.966 0.141 1.326 0.422 0.472 0.369 0.676 0.807 0.812 1.129 0.301 0.708 0.302 1.366 0.304 2.43 0 0.284-0.008 0.52-0.016 0.684v1.2h0.177c0.218 0 0.42-0.022 0.604-0.065 0.097-0.146 0.185-0.302 0.264-0.466 0.32-0.661 0.48-1.404 0.48-2.231 0-0.838-0.16-1.588-0.48-2.249-0.136-0.281-0.296-0.536-0.479-0.765l-0.045-0.055c-0.205-0.248-0.44-0.465-0.7-0.648-0.003-0.002-0.006-0.005-0.009-0.007-0.037-0.026-0.075-0.052-0.113-0.076 0 0-0.020-0.012-0.027-0.017l-0.004-0.003c-0.57-0.36-1.214-0.541-1.933-0.541-0.732 0-1.367 0.152-1.904 0.457s-0.949 0.767-1.235 1.387h-0.068c-0.182-0.62-0.499-1.083-0.949-1.387s-0.995-0.457-1.634-0.457c-0.662 0-1.235 0.175-1.719 0.526s-0.855 0.859-1.112 1.525c-0.257 0.666-0.385 1.453-0.385 2.361 0 0.793 0.117 1.519 0.351 2.18s0.576 1.221 1.028 1.68c0.451 0.46 0.985 0.787 1.602 0.982v0.069c-0.57 0-1.14 0-1.711 0-0.328-0.020-0.606 0.242-0.611 0.559-0.006 0.324 0.276 0.599 0.611 0.579h2.719c0.649 0 1.222 0.074 1.717 0.224s0.883 0.359 1.162 0.629c0.169 0.163 0.291 0.345 0.366 0.544 0.062 0.165 0.081 0.312 0.087 0.413-0.036 0.583 0.439 0.999 0.841 0.953 0.356-0.041 0.696-0.449 0.648-0.953-0.011-0.816-0.311-1.451-0.898-1.905z"></path>
<path fill="#fff" style="fill: var(--color2, #fff)" d="M23.727 12.166c0.196-0.048 0.342-0.107 0.589-0.206 0.2-0.080 0.363-0.154 0.474-0.206 0.159-0.148 0.318-0.295 0.477-0.442-0.116 0.021-0.232 0.042-0.348 0.063 0-0.002-0-0.004-0-0.004 0-0.001 0-0.002 0-0.002 0-0.002 0-0.004-0-0.006h-10.219c-0.321-0.019-0.556 0.252-0.529 0.496 0.024 0.216 0.252 0.412 0.529 0.388h8.412c0.263-0.007 0.473-0.047 0.616-0.082z"></path>
<path fill="#fff" style="fill: var(--color2, #fff)" d="M39.284 11.364c0.004 0.293 0.015 0.591-0.001 0.885h10.272c0.258 0.016 0.475-0.196 0.473-0.447-0.003-0.248-0.219-0.453-0.473-0.438-3.424 0-6.847 0-10.27 0z"></path>
<path fill="#fff" style="fill: var(--color2, #fff)" d="M25.357 9.64c-0.018-0.203-0.027-0.408-0.027-0.615 0-3.833 3.096-6.952 6.902-6.952s6.902 3.119 6.902 6.952c0 0.328-0.023 0.651-0.067 0.967 0.108 0.093 0.215 0.184 0.324 0.272 0.148 0.047 0.296 0.103 0.442 0.168 0.083-0.459 0.126-0.93 0.126-1.407 0-2.079-0.804-4.033-2.263-5.503s-3.4-2.28-5.463-2.28c-2.064 0-4.004 0.809-5.463 2.28s-2.263 3.425-2.263 5.503c0 0.484 0.044 0.962 0.13 1.428 0.263-0.243 0.504-0.514 0.722-0.814z"></path>
<path fill="#fff" style="fill: var(--color2, #fff)" d="M29.729 10.052c0.084-0.625-0.994-1.238 0.059-0.931 0.066 0.018 0.363 0.525 0.51 0.229 0.030-0.055-0.33-0.347-0.301-0.569 0.041-0.325-0.936-0.229-0.888-0.769 0.033-0.337-0.48 0.011-0.62 0.188-0.448 0.569-0.11 0.673-1.086 1.316-0.954 0.628-0.606-0.222-1.747 1.327-0.521 0.71-0.928 0.994-1.823 1.161-0.312 0.059-0.628 0.144-0.936 0.233 1.365-0.491 2.425-1.327 3.188-2.498 1.166-0.968 2.047-1.811 2.642-2.532 0.37-0.329 0.657-0.329 0.851 0 0.162 0.314 0.389 0.425 0.679 0.325 0.37 0.026 0.778 0.436 1.222 1.231 1.225-1.172 2.066-2.062 2.528-2.676 0.283-0.462 0.668-0.344 1.159 0.358 1.207 1.822 2.513 3.293 3.915 4.413 0.734 0.207 1.453 0.665 2.157 1.379-2.308 0-3.464 0-3.464 0-0.602-0.872-1.056-1.331-1.361-1.371-1.416-0.152-2.425 0.38-3.020 1.597 0.151-1.149 1.049-2.055 2.19-2.206-0.44-1.486-2.278 0.218-1.145-0.954 0.169-0.174 0.587-0.122 0.679-0.444 0.069-0.24 0.316-0.47-0.088-0.617-0.129-0.044-0.697-0.425-0.337-0.65 0.4-0.251 0.125-0.772-0.231-1.005-0.359-0.229-0.646 0.994-1.277 1.246-0.404 0.163-1.625 1.312-1.835 1.693-0.172 0.311-1.831 1.904-2.128 2.092-0.026 0.018-1.038 0.787-1.046 0.798 0.14-0.784 0.583-1.253 1.229-1.619 0.304-0.175 0.278-0.408 0.322-0.744z"></path>
</symbol>
<symbol id="icon-menu" viewBox="0 0 32 32">
<path fill="#fff" style="fill: var(--color2, #fff)" d="M30.667 17.306h-29.333c-0.736 0-1.333-0.597-1.333-1.333s0.597-1.333 1.333-1.333h29.333c0.736 0 1.333 0.597 1.333 1.333s-0.597 1.333-1.333 1.333z"></path>
<path fill="#fff" style="fill: var(--color2, #fff)" d="M30.667 7.083h-29.333c-0.736 0-1.333-0.597-1.333-1.333s0.597-1.333 1.333-1.333h29.333c0.736 0 1.333 0.597 1.333 1.333s-0.597 1.333-1.333 1.333z"></path>
<path fill="#fff" style="fill: var(--color2, #fff)" d="M30.667 27.528h-29.333c-0.736 0-1.333-0.597-1.333-1.333s0.597-1.333 1.333-1.333h29.333c0.736 0 1.333 0.597 1.333 1.333s-0.597 1.333-1.333 1.333z"></path>
</symbol>
<symbol id="icon-twitter" viewBox="0 0 32 32">
<path fill="#e5e5e5" style="fill: var(--color4, #e5e5e5)" d="M11.938 29.128c-1.384 0-2.808-0.112-4.241-0.337-2.524-0.396-5.078-1.716-5.801-2.111l-1.896-1.037 2.053-0.675c2.244-0.738 3.609-1.196 5.299-1.912-1.692-0.819-2.996-2.293-3.624-4.199l-0.478-1.45 0.392 0.060c-0.371-0.374-0.665-0.754-0.892-1.1-0.808-1.228-1.236-2.728-1.145-4.014l0.090-1.265 0.758 0.293c-0.32-0.604-0.551-1.248-0.686-1.924-0.331-1.647-0.054-3.398 0.78-4.928l0.66-1.211 0.883 1.060c2.791 3.353 6.327 5.342 10.523 5.924-0.171-1.181-0.043-2.322 0.382-3.344 0.495-1.19 1.375-2.199 2.545-2.918 1.299-0.799 2.875-1.186 4.437-1.090 1.657 0.102 3.161 0.723 4.356 1.797 0.584-0.152 1.013-0.313 1.595-0.532 0.35-0.132 0.746-0.281 1.242-0.452l1.828-0.63-1.192 3.405c0.079-0.007 0.16-0.012 0.244-0.016l1.952-0.088-1.154 1.577c-0.066 0.090-0.083 0.116-0.106 0.151-0.093 0.14-0.209 0.314-1.792 2.429-0.396 0.53-0.595 1.219-0.558 1.942 0.14 2.748-0.197 5.234-1.003 7.39-0.762 2.039-1.943 3.789-3.51 5.2-1.939 1.746-4.411 2.942-7.349 3.553-1.441 0.3-2.988 0.45-4.59 0.45z"></path>
</symbol>
<symbol id="icon-instagram" viewBox="0 0 32 32">
<path fill="#e5e5e5" style="fill: var(--color4, #e5e5e5)" d="M27.312 0h-22.625c-2.584 0-4.688 2.103-4.688 4.688v22.625c0 2.584 2.103 4.688 4.688 4.688h22.625c2.584 0 4.688-2.103 4.688-4.688v-22.625c0-2.584-2.103-4.688-4.688-4.688zM16.063 24.375c-4.653 0-8.438-3.785-8.438-8.438s3.785-8.438 8.438-8.438c4.652 0 8.437 3.785 8.437 8.438s-3.785 8.438-8.437 8.438zM25.437 9.375c-1.551 0-2.812-1.262-2.812-2.813s1.262-2.813 2.812-2.813c1.551 0 2.812 1.262 2.812 2.813s-1.262 2.813-2.812 2.813z"></path>
<path fill="#e5e5e5" style="fill: var(--color4, #e5e5e5)" d="M25.437 5.625c-0.517 0-0.937 0.42-0.937 0.938s0.42 0.938 0.937 0.938c0.517 0 0.938-0.42 0.938-0.938s-0.42-0.938-0.938-0.938z"></path>
<path fill="#e5e5e5" style="fill: var(--color4, #e5e5e5)" d="M16.063 9.375c-3.618 0-6.563 2.944-6.563 6.563s2.944 6.563 6.563 6.563c3.618 0 6.562-2.944 6.562-6.563s-2.944-6.563-6.562-6.563z"></path>
</symbol>
<symbol id="icon-phone" viewBox="0 0 32 32">
<path fill="#fff" style="fill: var(--color2, #fff)" d="M31.096 23.485l-4.466-4.466c-1.595-1.595-4.306-0.957-4.944 1.116-0.479 1.436-2.073 2.233-3.509 1.914-3.19-0.797-7.496-4.944-8.293-8.293-0.478-1.435 0.478-3.030 1.914-3.509 2.073-0.638 2.711-3.349 1.116-4.944l-4.466-4.466c-1.276-1.116-3.19-1.116-4.306 0l-3.030 3.030c-3.030 3.19 0.319 11.643 7.815 19.139s15.949 11.005 19.139 7.815l3.030-3.030c1.116-1.276 1.116-3.19 0-4.306z"></path>
</symbol>
<symbol id="icon-facebook" viewBox="0 0 32 32">
<path fill="#e5e5e5" style="fill: var(--color1, #e5e5e5)" d="M27.312 0h-22.625c-2.584 0-4.688 2.103-4.688 4.688v22.625c0 2.584 2.103 4.688 4.688 4.688h9.438v-11.312h-3.75v-5.625h3.75v-3.813c0-3.102 2.523-5.625 5.625-5.625h5.687v5.625h-5.687v3.813h5.687l-0.937 5.625h-4.75v11.312h7.562c2.584 0 4.688-2.103 4.688-4.688v-22.625c0-2.584-2.103-4.688-4.688-4.688z"></path>
</symbol>
<symbol id="icon-cross" viewBox="0 0 32 32">
<path fill="#ffffff" d="M31.708 25.708c-0-0-0-0-0-0l-9.708-9.708 9.708-9.708c0-0 0-0 0-0 0.105-0.105 0.18-0.227 0.229-0.357 0.133-0.356 0.057-0.771-0.229-1.057l-4.586-4.586c-0.286-0.286-0.702-0.361-1.057-0.229-0.13 0.048-0.252 0.124-0.357 0.228 0 0-0 0-0 0l-9.708 9.708-9.708-9.708c-0-0-0-0-0-0-0.105-0.104-0.227-0.18-0.357-0.228-0.356-0.133-0.771-0.057-1.057 0.229l-4.586 4.586c-0.286 0.286-0.361 0.702-0.229 1.057 0.049 0.13 0.124 0.252 0.229 0.357 0 0 0 0 0 0l9.708 9.708-9.708 9.708c-0 0-0 0-0 0-0.104 0.105-0.18 0.227-0.229 0.357-0.133 0.355-0.057 0.771 0.229 1.057l4.586 4.586c0.286 0.286 0.702 0.361 1.057 0.229 0.13-0.049 0.252-0.124 0.357-0.229 0-0 0-0 0-0l9.708-9.708 9.708 9.708c0 0 0 0 0 0 0.105 0.105 0.227 0.18 0.357 0.229 0.356 0.133 0.771 0.057 1.057-0.229l4.586-4.586c0.286-0.286 0.362-0.702 0.229-1.057-0.049-0.13-0.124-0.252-0.229-0.357z"></path>
</symbol>
</defs>
</svg>
